<?plantuml 1.2026.2?><svg xmlns="http://www.w3.org/2000/svg" xmlns:xlink="http://www.w3.org/1999/xlink" contentStyleType="text/css" data-diagram-type="DESCRIPTION" height="1373px" preserveAspectRatio="none" style="width:1240px;height:1373px;background:#FFFFFF;" version="1.1" viewBox="0 0 1240 1373" width="1240px" zoomAndPan="magnify"><defs/><g><!--cluster External Partner (SolExperts)--><g class="cluster" data-qualified-name="External Partner .SolExperts." data-source-line="8" id="ent0002"><path d="M364.2644,23.7561 C367.6444,16.4194 375.1526,14.3415 379.8513,22.423 C386.7167,15.8143 392.4537,16.0879 397.7328,24.3326 C402.3911,15.7805 410.2676,13.79 416.5583,22.5584 C420.8976,16.5487 425.6348,15.7124 430.4266,22.0502 C434.8799,13.5278 443.1463,13.2813 447.3052,22.333 C452.1922,14.6776 458.0333,13.8708 464.5323,20.3712 C469.5145,12.4976 477.8265,11.2134 482.6187,20.5708 C488.3571,12.9048 493.5372,11.1491 499.528,20.3173 C504.466,11 513.0441,13.1536 517.4321,20.8945 C522.3468,12.3767 529.892,13.4477 534.6925,21.0172 C540.0223,12.2796 546.7485,13.675 552.2492,20.8284 C558.0665,12.76 563.5597,12.9937 568.2133,21.9214 C574.6197,13.0567 580.4751,13.9723 586.454,22.3731 C595.0107,15.3187 605.1026,16.6151 607.29,29.1483 C607.9227,29.0457 608.282,29.2476 608.1403,29.9581 C617.0608,32.2498 620.1454,39.6531 614.4095,47.2565 C624.7219,50.6666 624.1723,59.4285 616.7749,65.1763 C626.7618,68.1123 628.3547,75.6945 621.8125,83.2401 C629.3834,89.486 627.7408,97.0481 618.0001,99.1441 C623.8821,106.1652 622.7144,113.8342 613.264,116.7249 C618.9991,128.5191 614.5724,139.4416 600.29,140.1483 C601.9665,139.7227 602.956,140.5835 602.5029,142.3239 C597.9769,151.1554 590.9456,151.296 584.8172,144.0912 C579.1163,152.845 571.9164,152.712 566.8497,143.4583 C562.28,151.6133 556.7415,152.228 551.0104,144.6256 C545.8738,153.7579 540.1903,154.6397 532.6328,147.3318 C529.4788,155.9227 522.755,155.8322 517.155,149.9471 C511.6797,158.1377 505.7071,158.0255 499.8647,150.3471 C493.2834,157.379 487.7844,158.1799 481.9442,149.5018 C476.6469,157.6158 471.7253,157.5161 466.3831,149.5452 C460.9197,157.6516 452.0674,158.7658 447.3453,148.7658 C442.3984,155.3785 436.2119,154.1339 432.5279,147.3672 C427.3748,153.6352 419.8401,153.4807 416.6125,145.253 C411.2428,153.9461 404.6609,152.6585 398.9205,145.6713 C391.2905,153.1653 384.3085,150.7781 380.2845,141.6326 C367.9176,150.4971 360.1308,146.4555 355.29,133.1483 C356.1207,132.8653 356.4093,133.2025 356.3948,134.007 C348.3894,130.3541 347.5073,124.6692 354.3545,118.9973 C342.275,115.0463 341.7526,108.3289 349.2893,99.3267 C340.7473,96.762 340.078,89.1754 345.9824,83.5774 C339.8185,75.8951 338.9282,69.3709 349.9174,65.4022 C341.9348,58.86 340.9446,52.2177 351.4334,47.2152 C341.8891,33.1302 348.0107,25.9152 362.29,22.1483 C363.7763,21.5637 364.498,22.2284 364.2644,23.7561" fill="#FFFFFF" style="stroke:#000000;stroke-width:1;"/><text fill="#000000" font-family="Verdana" font-size="14" font-weight="bold" lengthAdjust="spacing" textLength="232.6543" x="364.9629" y="50.1435">External Partner (SolExperts)</text></g><!--cluster Ingress Layer (Kafka Connect)--><g class="cluster" data-qualified-name="Ingress Layer .Kafka Connect." data-source-line="12" id="ent0004"><path d="M346.79,219.1483 L606.8222,219.1483 A3.75,3.75 0 0 1 609.3222,221.6483 L616.3222,261.4452 L616.79,261.4452 A2.5,2.5 0 0 1 619.29,263.9452 L619.29,370.6483 A2.5,2.5 0 0 1 616.79,373.1483 L346.79,373.1483 A2.5,2.5 0 0 1 344.29,370.6483 L344.29,221.6483 A2.5,2.5 0 0 1 346.79,219.1483" fill="#FFFFFF" style="stroke:#000000;stroke-width:1;"/><line style="stroke:#000000;stroke-width:1;" x1="344.29" x2="616.3222" y1="261.4452" y2="261.4452"/><text fill="#000000" font-family="Verdana" font-size="14" font-weight="bold" lengthAdjust="spacing" textLength="239.0322" x="358.29" y="244.1435">Ingress Layer (Kafka Connect)</text></g><!--cluster Local Kafka Cluster--><g class="cluster" data-qualified-name="Local Kafka Cluster" data-source-line="16" id="ent0006"><path d="M361.79,444.1483 L535.2314,444.1483 A3.75,3.75 0 0 1 537.7314,446.6483 L544.7314,486.4452 L1113.79,486.4452 A2.5,2.5 0 0 1 1116.29,488.9452 L1116.29,575.6483 A2.5,2.5 0 0 1 1113.79,578.1483 L361.79,578.1483 A2.5,2.5 0 0 1 359.29,575.6483 L359.29,446.6483 A2.5,2.5 0 0 1 361.79,444.1483" fill="#FFFFFF" style="stroke:#000000;stroke-width:1;"/><line style="stroke:#000000;stroke-width:1;" x1="359.29" x2="544.7314" y1="486.4452" y2="486.4452"/><text fill="#000000" font-family="Verdana" font-size="14" font-weight="bold" lengthAdjust="spacing" textLength="152.4414" x="373.29" y="469.1435">Local Kafka Cluster</text></g><!--cluster Spring Boot Applications--><g class="cluster" data-qualified-name="Spring Boot Applications" data-source-line="22" id="ent0010"><path d="M49.79,649.1483 L266.5644,649.1483 A3.75,3.75 0 0 1 269.0644,651.6483 L276.0644,691.4452 L1198.79,691.4452 A2.5,2.5 0 0 1 1201.29,693.9452 L1201.29,1187.6483 A2.5,2.5 0 0 1 1198.79,1190.1483 L49.79,1190.1483 A2.5,2.5 0 0 1 47.29,1187.6483 L47.29,651.6483 A2.5,2.5 0 0 1 49.79,649.1483" fill="#FFFFFF" style="stroke:#000000;stroke-width:1;"/><line style="stroke:#000000;stroke-width:1;" x1="47.29" x2="276.0644" y1="691.4452" y2="691.4452"/><text fill="#000000" font-family="Verdana" font-size="14" font-weight="bold" lengthAdjust="spacing" textLength="195.7744" x="61.29" y="674.1435">Spring Boot Applications</text></g><!--cluster Core Pod--><g class="cluster" data-qualified-name="Spring Boot Applications.Core Pod" data-source-line="24" id="ent0011"><polygon fill="#FFFFFF" points="1010.29,730.6483,1020.29,720.6483,1177.29,720.6483,1177.29,852.6483,1167.29,862.6483,1010.29,862.6483,1010.29,730.6483" style="stroke:#000000;stroke-width:1;"/><line style="stroke:#000000;stroke-width:1;" x1="1167.29" x2="1177.29" y1="730.6483" y2="720.6483"/><line style="stroke:#000000;stroke-width:1;" x1="1010.29" x2="1167.29" y1="730.6483" y2="730.6483"/><line style="stroke:#000000;stroke-width:1;" x1="1167.29" x2="1167.29" y1="730.6483" y2="862.6483"/><text fill="#000000" font-family="Verdana" font-size="14" font-weight="bold" lengthAdjust="spacing" textLength="71.0664" x="1054.2568" y="756.6435">Core Pod</text></g><!--cluster Pipeline Pod--><g class="cluster" data-qualified-name="Spring Boot Applications.Pipeline Pod" data-source-line="28" id="ent0013"><polygon fill="#FFFFFF" points="71.29,722.1483,81.29,712.1483,986.29,712.1483,986.29,1156.1483,976.29,1166.1483,71.29,1166.1483,71.29,722.1483" style="stroke:#000000;stroke-width:1;"/><line style="stroke:#000000;stroke-width:1;" x1="976.29" x2="986.29" y1="722.1483" y2="712.1483"/><line style="stroke:#000000;stroke-width:1;" x1="71.29" x2="976.29" y1="722.1483" y2="722.1483"/><line style="stroke:#000000;stroke-width:1;" x1="976.29" x2="976.29" y1="722.1483" y2="1166.1483"/><text fill="#000000" font-family="Verdana" font-size="14" font-weight="bold" lengthAdjust="spacing" textLength="98.4102" x="475.5849" y="748.1435">Pipeline Pod</text></g><!--entity ExtTopic--><g class="entity" data-qualified-name="External Partner .SolExperts..ExtTopic" data-source-line="9" id="ent0003"><path d="M376.29,69.1483 L586.6836,69.1483 C591.6836,69.1483 591.6836,100.4452 591.6836,100.4452 C591.6836,100.4452 591.6836,131.7421 586.6836,131.7421 L376.29,131.7421 C371.29,131.7421 371.29,100.4452 371.29,100.4452 C371.29,100.4452 371.29,69.1483 376.29,69.1483" fill="#FFFFFF" style="stroke:#000000;stroke-width:1;"/><path d="M586.6836,69.1483 C581.6836,69.1483 581.6836,100.4452 581.6836,100.4452 C581.6836,131.7421 586.6836,131.7421 586.6836,131.7421" fill="none" style="stroke:#000000;stroke-width:1;"/><text fill="#000000" font-family="Verdana" font-size="14" lengthAdjust="spacing" textLength="102.1563" x="386.29" y="97.1435">External Kafka</text><text fill="#000000" font-family="Verdana" font-size="14" lengthAdjust="spacing" textLength="180.3936" x="386.29" y="113.4403">[solexperts_to_swisstopo]</text></g><!--entity MM2--><g class="entity" data-qualified-name="Ingress Layer .Kafka Connect..MM2" data-source-line="13" id="ent0005"><rect fill="#FFFFFF" height="82.5938" rx="2.5" ry="2.5" style="stroke:#000000;stroke-width:1;" width="163.2773" x="399.79" y="274.1483"/><rect fill="#FFFFFF" height="10" style="stroke:#000000;stroke-width:1;" width="15" x="543.0673" y="279.1483"/><rect fill="#FFFFFF" height="2" style="stroke:#000000;stroke-width:1;" width="4" x="541.0673" y="281.1483"/><rect fill="#FFFFFF" height="2" style="stroke:#000000;stroke-width:1;" width="4" x="541.0673" y="285.1483"/><text fill="#000000" font-family="Verdana" font-size="14" lengthAdjust="spacing" textLength="98.2939" x="424.79" y="317.1435">MirrorMaker 2</text><text fill="#000000" font-family="Verdana" font-size="14" lengthAdjust="spacing" textLength="103.2773" x="424.79" y="333.4403">(tasks.max=6)</text></g><!--entity RawTopic--><g class="entity" data-qualified-name="Local Kafka Cluster.RawTopic" data-source-line="17" id="ent0007"><path d="M379.79,499.1483 L583.2519,499.1483 C588.2519,499.1483 588.2519,530.4452 588.2519,530.4452 C588.2519,530.4452 588.2519,561.7421 583.2519,561.7421 L379.79,561.7421 C374.79,561.7421 374.79,530.4452 374.79,530.4452 C374.79,530.4452 374.79,499.1483 379.79,499.1483" fill="#FFFFFF" style="stroke:#000000;stroke-width:1;"/><path d="M583.2519,499.1483 C578.2519,499.1483 578.2519,530.4452 578.2519,530.4452 C578.2519,561.7421 583.2519,561.7421 583.2519,561.7421" fill="none" style="stroke:#000000;stroke-width:1;"/><text fill="#000000" font-family="Verdana" font-size="14" lengthAdjust="spacing" textLength="71.7979" x="389.79" y="527.1435">Raw Topic</text><text fill="#000000" font-family="Verdana" font-size="14" lengthAdjust="spacing" textLength="173.4619" x="389.79" y="543.4403">[internal-raw-solexperts]</text></g><!--entity NormTopic--><g class="entity" data-qualified-name="Local Kafka Cluster.NormTopic" data-source-line="18" id="ent0008"><path d="M653.29,499.1483 L831.2675,499.1483 C836.2675,499.1483 836.2675,530.4452 836.2675,530.4452 C836.2675,530.4452 836.2675,561.7421 831.2675,561.7421 L653.29,561.7421 C648.29,561.7421 648.29,530.4452 648.29,530.4452 C648.29,530.4452 648.29,499.1483 653.29,499.1483" fill="#FFFFFF" style="stroke:#000000;stroke-width:1;"/><path d="M831.2675,499.1483 C826.2675,499.1483 826.2675,530.4452 826.2675,530.4452 C826.2675,561.7421 831.2675,561.7421 831.2675,561.7421" fill="none" style="stroke:#000000;stroke-width:1;"/><text fill="#000000" font-family="Verdana" font-size="14" lengthAdjust="spacing" textLength="121.6797" x="663.29" y="527.1435">Normalized Topic</text><text fill="#000000" font-family="Verdana" font-size="14" lengthAdjust="spacing" textLength="147.9775" x="663.29" y="543.4403">[internal-normalized]</text></g><!--entity SensorConfigTopic--><g class="entity" data-qualified-name="Local Kafka Cluster.SensorConfigTopic" data-source-line="19" id="ent0009"><path d="M901.29,499.1483 L1095.5166,499.1483 C1100.5166,499.1483 1100.5166,530.4452 1100.5166,530.4452 C1100.5166,530.4452 1100.5166,561.7421 1095.5166,561.7421 L901.29,561.7421 C896.29,561.7421 896.29,530.4452 896.29,530.4452 C896.29,530.4452 896.29,499.1483 901.29,499.1483" fill="#FFFFFF" style="stroke:#000000;stroke-width:1;"/><path d="M1095.5166,499.1483 C1090.5166,499.1483 1090.5166,530.4452 1090.5166,530.4452 C1090.5166,561.7421 1095.5166,561.7421 1095.5166,561.7421" fill="none" style="stroke:#000000;stroke-width:1;"/><text fill="#000000" font-family="Verdana" font-size="14" lengthAdjust="spacing" textLength="122.1719" x="911.29" y="527.1435">Compacted Topic</text><text fill="#000000" font-family="Verdana" font-size="14" lengthAdjust="spacing" textLength="164.2266" x="911.29" y="543.4403">[internal-sensor-config]</text></g><!--entity CoreAPI--><g class="entity" data-qualified-name="Spring Boot Applications.Core Pod.CoreAPI" data-source-line="25" id="ent0012"><rect fill="#FFFFFF" height="66.2969" rx="2.5" ry="2.5" style="stroke:#000000;stroke-width:1;" width="119.3086" x="1026.79" y="780.6483"/><rect fill="#FFFFFF" height="10" style="stroke:#000000;stroke-width:1;" width="15" x="1126.0986" y="785.6483"/><rect fill="#FFFFFF" height="2" style="stroke:#000000;stroke-width:1;" width="4" x="1124.0986" y="787.6483"/><rect fill="#FFFFFF" height="2" style="stroke:#000000;stroke-width:1;" width="4" x="1124.0986" y="791.6483"/><text fill="#000000" font-family="Verdana" font-size="14" lengthAdjust="spacing" textLength="59.3086" x="1051.79" y="823.6435">Core API</text></g><!--entity Adapter--><g class="entity" data-qualified-name="Spring Boot Applications.Pipeline Pod.Adapter" data-source-line="29" id="ent0014"><rect fill="#FFFFFF" height="82.5938" rx="2.5" ry="2.5" style="stroke:#000000;stroke-width:1;" width="394.9609" x="252.79" y="772.1483"/><rect fill="#FFFFFF" height="10" style="stroke:#000000;stroke-width:1;" width="15" x="627.7509" y="777.1483"/><rect fill="#FFFFFF" height="2" style="stroke:#000000;stroke-width:1;" width="4" x="625.7509" y="779.1483"/><rect fill="#FFFFFF" height="2" style="stroke:#000000;stroke-width:1;" width="4" x="625.7509" y="783.1483"/><text fill="#000000" font-family="Verdana" font-size="14" lengthAdjust="spacing" textLength="147.6699" x="277.79" y="815.1435">Adapter (Normalizer)</text><text fill="#000000" font-family="Verdana" font-size="14" lengthAdjust="spacing" textLength="334.9609" x="277.79" y="831.4403">SolExpertsRawSensorDataNormalizationService</text></g><!--entity Hydrator--><g class="entity" data-qualified-name="Spring Boot Applications.Pipeline Pod.Hydrator" data-source-line="30" id="ent0015"><rect fill="#FFFFFF" height="82.5938" rx="2.5" ry="2.5" style="stroke:#000000;stroke-width:1;" width="258.29" x="708.29" y="772.1483"/><rect fill="#FFFFFF" height="10" style="stroke:#000000;stroke-width:1;" width="15" x="946.58" y="777.1483"/><rect fill="#FFFFFF" height="2" style="stroke:#000000;stroke-width:1;" width="4" x="944.58" y="779.1483"/><rect fill="#FFFFFF" height="2" style="stroke:#000000;stroke-width:1;" width="4" x="944.58" y="783.1483"/><text fill="#000000" font-family="Verdana" font-size="14" lengthAdjust="spacing" textLength="109.833" x="733.29" y="815.1435">Cache Hydrator</text><text fill="#000000" font-family="Verdana" font-size="14" lengthAdjust="spacing" textLength="198.29" x="733.29" y="831.4403">SensorConfigCacheHydrator</text></g><!--entity Processor--><g class="entity" data-qualified-name="Spring Boot Applications.Pipeline Pod.Processor" data-source-line="31" id="ent0016"><rect fill="#FFFFFF" height="82.5938" rx="2.5" ry="2.5" style="stroke:#000000;stroke-width:1;" width="197.7441" x="87.29" y="1067.1483"/><rect fill="#FFFFFF" height="10" style="stroke:#000000;stroke-width:1;" width="15" x="265.0341" y="1072.1483"/><rect fill="#FFFFFF" height="2" style="stroke:#000000;stroke-width:1;" width="4" x="263.0341" y="1074.1483"/><rect fill="#FFFFFF" height="2" style="stroke:#000000;stroke-width:1;" width="4" x="263.0341" y="1078.1483"/><text fill="#000000" font-family="Verdana" font-size="14" lengthAdjust="spacing" textLength="67.9834" x="112.29" y="1110.1435">Processor</text><text fill="#000000" font-family="Verdana" font-size="14" lengthAdjust="spacing" textLength="137.7441" x="112.29" y="1126.4403">SensorDataListener</text></g><!--entity Orchestrator--><g class="entity" data-qualified-name="Spring Boot Applications.Pipeline Pod.Orchestrator" data-source-line="32" id="ent0017"><rect fill="#FFFFFF" height="82.5938" rx="2.5" ry="2.5" style="stroke:#000000;stroke-width:1;" width="260.6758" x="345.79" y="1067.1483"/><rect fill="#FFFFFF" height="10" style="stroke:#000000;stroke-width:1;" width="15" x="586.4658" y="1072.1483"/><rect fill="#FFFFFF" height="2" style="stroke:#000000;stroke-width:1;" width="4" x="584.4658" y="1074.1483"/><rect fill="#FFFFFF" height="2" style="stroke:#000000;stroke-width:1;" width="4" x="584.4658" y="1078.1483"/><text fill="#000000" font-family="Verdana" font-size="14" lengthAdjust="spacing" textLength="200.6758" x="370.79" y="1110.1435">Transformation Orchestrator</text><text fill="#000000" font-family="Verdana" font-size="14" lengthAdjust="spacing" textLength="101.8076" x="370.79" y="1126.4403">(Shared Logic)</text></g><!--entity Reprocessor--><g class="entity" data-qualified-name="Spring Boot Applications.Pipeline Pod.Reprocessor" data-source-line="33" id="ent0018"><rect fill="#FFFFFF" height="82.5938" rx="2.5" ry="2.5" style="stroke:#000000;stroke-width:1;" width="303.332" x="666.79" y="1067.1483"/><rect fill="#FFFFFF" height="10" style="stroke:#000000;stroke-width:1;" width="15" x="950.122" y="1072.1483"/><rect fill="#FFFFFF" height="2" style="stroke:#000000;stroke-width:1;" width="4" x="948.122" y="1074.1483"/><rect fill="#FFFFFF" height="2" style="stroke:#000000;stroke-width:1;" width="4" x="948.122" y="1078.1483"/><text fill="#000000" font-family="Verdana" font-size="14" lengthAdjust="spacing" textLength="86.7686" x="691.79" y="1110.1435">Reprocessor</text><text fill="#000000" font-family="Verdana" font-size="14" lengthAdjust="spacing" textLength="243.332" x="691.79" y="1126.4403">SensorConfigReprocessingListener</text></g><!--entity TSDB--><g class="entity" data-qualified-name="TSDB" data-source-line="38" id="ent0019"><path d="M435.79,1301.1483 C435.79,1291.1483 502.1616,1291.1483 502.1616,1291.1483 C502.1616,1291.1483 568.5332,1291.1483 568.5332,1301.1483 L568.5332,1346.4452 C568.5332,1356.4452 502.1616,1356.4452 502.1616,1356.4452 C502.1616,1356.4452 435.79,1356.4452 435.79,1346.4452 L435.79,1301.1483" fill="#FFFFFF" style="stroke:#000000;stroke-width:1;"/><path d="M435.79,1301.1483 C435.79,1311.1483 502.1616,1311.1483 502.1616,1311.1483 C502.1616,1311.1483 568.5332,1311.1483 568.5332,1301.1483" fill="none" style="stroke:#000000;stroke-width:1;"/><text fill="#000000" font-family="Verdana" font-size="14" lengthAdjust="spacing" textLength="92.7432" x="455.79" y="1338.1435">TimeScaleDB</text></g><!--link ExtTopic to MM2--><g class="link" data-entity-1="ent0003" data-entity-2="ent0005" data-link-type="dependency" data-source-line="42" id="lnk20"><path d="M481.29,132.3683 C481.29,169.8683 481.29,226.3883 481.29,267.8183" fill="none" id="ExtTopic-to-MM2" style="stroke:#000000;stroke-width:1;"/><polygon fill="#000000" points="481.29,273.8183,485.29,264.8183,481.29,268.8183,477.29,264.8183,481.29,273.8183" style="stroke:#000000;stroke-width:1;"/><text fill="#000000" font-family="Verdana" font-size="13" lengthAdjust="spacing" textLength="113.0645" x="357.29" y="189.1652">SASL_SSL / PLAIN</text></g><!--link MM2 to RawTopic--><g class="link" data-entity-1="ent0005" data-entity-2="ent0007" data-link-type="dependency" data-source-line="43" id="lnk21"><path d="M481.29,357.3583 C481.29,398.7583 481.29,455.2983 481.29,492.8483" fill="none" id="MM2-to-RawTopic" style="stroke:#000000;stroke-width:1;"/><polygon fill="#000000" points="481.29,498.8483,485.29,489.8483,481.29,493.8483,477.29,489.8483,481.29,498.8483" style="stroke:#000000;stroke-width:1;"/><text fill="#000000" font-family="Verdana" font-size="13" lengthAdjust="spacing" textLength="182.8887" x="288.29" y="414.1652">1:1 Mirroring (RegexRouter)</text></g><!--link CoreAPI to SensorConfigTopic--><g class="link" data-entity-1="ent0012" data-entity-2="ent0009" data-link-type="dependency" data-source-line="46" id="lnk22"><path d="M1063.54,780.6283 C1063.54,725.6583 1063.54,622.1083 1063.54,568.1583" fill="none" id="CoreAPI-to-SensorConfigTopic" style="stroke:#000000;stroke-width:1;"/><polygon fill="#000000" points="1063.54,562.1583,1059.54,571.1583,1063.54,567.1583,1067.54,571.1583,1063.54,562.1583" style="stroke:#000000;stroke-width:1;"/><text fill="#000000" font-family="Verdana" font-size="13" lengthAdjust="spacing" textLength="141.1021" x="911.54" y="694.4652">Publish Sensor Config</text><text fill="#000000" font-family="Verdana" font-size="13" lengthAdjust="spacing" textLength="103.6572" x="930.2624" y="709.5981">(Key=SensorID)</text></g><!--link RawTopic to Adapter--><g class="link" data-entity-1="ent0007" data-entity-2="ent0014" data-link-type="dependency" data-source-line="48" id="lnk23"><path d="M481.29,562.2883 C481.29,613.4883 481.29,708.5283 481.29,765.6783" fill="none" id="RawTopic-to-Adapter" style="stroke:#000000;stroke-width:1;"/><polygon fill="#000000" points="481.29,771.6783,485.29,762.6783,481.29,766.6783,477.29,762.6783,481.29,771.6783" style="stroke:#000000;stroke-width:1;"/><text fill="#000000" font-family="Verdana" font-size="13" lengthAdjust="spacing" textLength="89.9526" x="381.29" y="653.0552">Poll Raw Data</text></g><!--link Adapter to NormTopic--><g class="link" data-entity-1="ent0014" data-entity-2="ent0008" data-link-type="dependency" data-source-line="49" id="lnk24"><path d="M648.12,814.1483 C652.18,814.1483 654.46,814.1483 654.46,814.1483 C654.46,814.1483 654.46,642.3183 654.46,568.3483" fill="none" id="Adapter-to-NormTopic" style="stroke:#000000;stroke-width:1;"/><polygon fill="#000000" points="654.46,562.3483,650.46,571.3483,654.46,567.3483,658.46,571.3483,654.46,562.3483" style="stroke:#000000;stroke-width:1;"/><text fill="#000000" font-family="Verdana" font-size="13" lengthAdjust="spacing" textLength="156.895" x="665.46" y="714.4852">Produce Canonical JSON</text></g><!--reverse link Hydrator to SensorConfigTopic--><g class="link" data-entity-1="ent0015" data-entity-2="ent0009" data-link-type="dependency" data-source-line="51" id="lnk26"><path d="M931.29,765.8883 C931.29,708.8483 931.29,613.8083 931.29,562.4783" fill="none" id="Hydrator-backto-SensorConfigTopic" style="stroke:#000000;stroke-width:1;stroke-dasharray:7,7;"/><polygon fill="#000000" points="931.29,771.8883,935.29,762.8883,931.29,766.8883,927.29,762.8883,931.29,771.8883" style="stroke:#000000;stroke-width:1;"/><text fill="#000000" font-family="Verdana" font-size="13" lengthAdjust="spacing" textLength="136.8745" x="784.29" y="638.2552">Broadcast to all Pods</text><text fill="#000000" font-family="Verdana" font-size="13" lengthAdjust="spacing" textLength="104.9902" x="800.2321" y="653.3881">(UUID Group ID)</text></g><!--link Hydrator to Processor--><g class="link" data-entity-1="ent0015" data-entity-2="ent0016" data-link-type="dependency" data-source-line="52" id="lnk27"><path d="M837.29,855.2883 C837.29,909.4283 837.29,997.1483 837.29,997.1483 C837.29,997.1483 274.46,997.1483 274.46,997.1483 C274.46,997.1483 274.46,1029.4283 274.46,1061.1283" fill="none" id="Hydrator-to-Processor" style="stroke:#000000;stroke-width:1;stroke-dasharray:7,7;"/><polygon fill="#000000" points="274.46,1067.1283,278.46,1058.1283,274.46,1062.1283,270.46,1058.1283,274.46,1067.1283" style="stroke:#000000;stroke-width:1;"/><text fill="#000000" font-family="Verdana" font-size="13" lengthAdjust="spacing" textLength="184.6851" x="396.81" y="983.2152">Updates SensorConfigCache</text></g><!--link NormTopic to Processor--><g class="link" data-entity-1="ent0008" data-entity-2="ent0016" data-link-type="dependency" data-source-line="54" id="lnk28"><path d="M660.62,562.3483 C660.62,656.1983 660.62,926.1483 660.62,926.1483 C660.62,926.1483 263.62,926.1483 263.62,926.1483 C263.62,926.1483 263.62,1006.8983 263.62,1060.7783" fill="none" id="NormTopic-to-Processor" style="stroke:#000000;stroke-width:1;"/><polygon fill="#000000" points="263.62,1066.7783,267.62,1057.7783,263.62,1061.7783,259.62,1057.7783,263.62,1066.7783" style="stroke:#000000;stroke-width:1;"/><text fill="#000000" font-family="Verdana" font-size="13" lengthAdjust="spacing" textLength="102.4448" x="460.71" y="897.2152">Batch Consume</text><text fill="#000000" font-family="Verdana" font-size="13" lengthAdjust="spacing" textLength="85.084" x="469.3904" y="912.3481">(Manual Ack)</text></g><!--link Processor to Orchestrator--><g class="link" data-entity-1="ent0016" data-entity-2="ent0017" data-link-type="dependency" data-source-line="55" id="lnk29"><path d="M285.69,1109.1483 C305.03,1109.1483 319.59,1109.1483 339.76,1109.1483" fill="none" id="Processor-to-Orchestrator" style="stroke:#000000;stroke-width:1;"/><polygon fill="#000000" points="345.76,1109.1483,336.76,1105.1483,340.76,1109.1483,336.76,1113.1483,345.76,1109.1483" style="stroke:#000000;stroke-width:1;"/></g><!--link SensorConfigTopic to Reprocessor--><g class="link" data-entity-1="ent0009" data-entity-2="ent0018" data-link-type="dependency" data-source-line="57" id="lnk30"><path d="M998.29,562.1583 C998.29,682.8783 998.29,1109.1483 998.29,1109.1483 C998.29,1109.1483 993.04,1109.1483 976.16,1109.1483" fill="none" id="SensorConfigTopic-to-Reprocessor" style="stroke:#000000;stroke-width:1;"/><polygon fill="#000000" points="970.16,1109.1483,979.16,1113.1483,975.16,1109.1483,979.16,1105.1483,970.16,1109.1483" style="stroke:#000000;stroke-width:1;"/><text fill="#000000" font-family="Verdana" font-size="13" lengthAdjust="spacing" textLength="213.4653" x="1009.29" y="872.7852">Consume Sensor Config Updates</text><text fill="#000000" font-family="Verdana" font-size="13" lengthAdjust="spacing" textLength="136.5635" x="1047.7409" y="887.9181">(reprocessing-group)</text></g><!--reverse link Orchestrator to Reprocessor--><g class="link" data-entity-1="ent0017" data-entity-2="ent0018" data-link-type="dependency" data-source-line="58" id="lnk32"><path d="M613.05,1109.1483 C632.57,1109.1483 646.82,1109.1483 666.73,1109.1483" fill="none" id="Orchestrator-backto-Reprocessor" style="stroke:#000000;stroke-width:1;"/><polygon fill="#000000" points="607.05,1109.1483,616.05,1113.1483,612.05,1109.1483,616.05,1105.1483,607.05,1109.1483" style="stroke:#000000;stroke-width:1;"/></g><!--link Processor to TSDB--><g class="link" data-entity-1="ent0016" data-entity-2="ent0019" data-link-type="dependency" data-source-line="62" id="lnk33"><path d="M186.29,1150.1983 C186.29,1212.8183 186.29,1324.1483 186.29,1324.1483 C186.29,1324.1483 336.95,1324.1483 429.66,1324.1483" fill="none" id="Processor-to-TSDB" style="stroke:#000000;stroke-width:1;"/><polygon fill="#000000" points="435.66,1324.1483,426.66,1320.1483,430.66,1324.1483,426.66,1328.1483,435.66,1324.1483" style="stroke:#000000;stroke-width:1;"/><text fill="#000000" font-family="Verdana" font-size="13" lengthAdjust="spacing" textLength="191.9976" x="22" y="1310.2152">jOOQ Batch INSERT / UPDATE</text></g><!--link Reprocessor to TSDB--><g class="link" data-entity-1="ent0018" data-entity-2="ent0019" data-link-type="dependency" data-source-line="63" id="lnk34"><path d="M818.29,1150.1983 C818.29,1212.8183 818.29,1324.1483 818.29,1324.1483 C818.29,1324.1483 667.63,1324.1483 574.92,1324.1483" fill="none" id="Reprocessor-to-TSDB" style="stroke:#000000;stroke-width:1;"/><polygon fill="#000000" points="568.92,1324.1483,577.92,1328.1483,573.92,1324.1483,577.92,1320.1483,568.92,1324.1483" style="stroke:#000000;stroke-width:1;"/><text fill="#000000" font-family="Verdana" font-size="13" lengthAdjust="spacing" textLength="123.2842" x="646.58" y="1310.2152">jOOQ Bulk UPDATE</text></g><?plantuml-src bLHDZvj84BtpAog-h7t0cvb38aNAI1ZGXeq_Y65EcMZKWJRkDNJtTZUPSQByzrI3mM1Fj5h9batLgwfNLQzuPVQqeY1BmhYZ3unBeaW5cQYau9IRn1nB2dLLtWwy9UFK72K5eSnU31oIv3dZ1Toy7XWLuGTD9RmT6hd8gJM-UUquMIdg72RXiw6Aan9YeWod2gQ9ACDdIPNHimdyS03-hMbD1yYFP7SW3_op5YLjWOz6FEedfhKHKdoP0D60w5H8bZa_7KUIx40AJ17nGb6jOKcEjbAJ27p1EStCgLW_0vYic592hSW1iRSFV6g8FkXvHPxVlvarDLQhsr7wfSWwUk2NjKQ-emwsv0aQKaYUyRORLv4dzzn9Inw1BVa-T2rKHKhsdURN6NZlQwCjzYBSnwv8PbwArfHheTnCy1qhsWH9O_8Ro_KG4wdijXT26F2aB5b631DSsrQnejsnBQWen29l-n-DjN5vSTIKiW_u7p4_py4nazIgxJS9l9n8O_VN3qND7lXPDZYzjeE06D9X6eu9LTzOHflAfonNx4Ysf_3Xc2jYXCAqWraqlixL9EaUBhF4IcGej7C2IsN9K16Sjf4zuZ8qnSlHEylQCeQDmfhQdDXCaprHkCMbA5ZMYd08kCorfVAIIDj9xy1DZcWD8jgTu2T7xb-9niMahA89Qfm6YmQT9i72SVu0rtKX2Frjw2LX046KfDxQ3y5B8VqGGhg9BG9n_fxm0kdlbAYiAHTF77_km0Xe7-wSxd3XvBwpPmRl8F6IvMEIBE5FY9TUj7QikSTq5uF0ctStq9wkbUbqImlwl1KrxdhMSLr5GR0C8GdzDDgiORh2zw31BrBJg7ECcpMCJ-eSKRqw3YmvYUkl9TFxanDQBwxh8ps-RsrHC9iuJazpcB7JiyqZojBs0bOl4wVp3D7zTJTu9V8we-0JBZYpRv-_ayqQ2rspd9TqP-PtlMHj-489acT46xi0WgNnu3JIlh-F0lXBYLf2mxkFcSyjZpccwVLhyznBr0WTlpYQOq4cPxx3BaRX2sAolHsQhYkAvLU4rzYAbnsmzXdfAbRi3GQF9Fz2gyD20q7RKgSYuqN1YJ-MLeF3S0ix0QGmpE7QCLvn-AyJM6pITBFw7rSmwBgJk3qssy8_cyqdQ4SMhPDmc-95tCU1buONJ5yEhCj33_y5?></g></svg>